<svg width="1024" height="1024" viewBox="0 0 1024 1024" fill="none" xmlns="http://www.w3.org/2000/svg">
  <rect width="1024" height="1024" fill="#000000"/>
  <path d="M200 512V624C200 640 216 656 232 656C248 656 264 640 264 624V400C264 384 248 368 232 368C216 368 200 384 200 400V512ZM344 336V688C344 704 360 720 376 720C392 720 408 704 408 688V336C408 320 392 304 376 304C360 304 344 320 344 336ZM488 272V752C488 768 504 784 520 784C536 784 552 768 552 752V272C552 256 536 240 520 240C504 240 488 256 488 272ZM632 336V688C632 704 648 720 664 720C680 720 696 704 696 688V336C696 320 680 304 664 304C648 304 632 320 632 336ZM776 400V624C776 640 792 656 808 656C824 656 840 640 840 624V400C840 384 824 368 808 368C792 368 776 384 776 400Z" fill="#FF69B4"/>
</svg> 